<?xml version="1.0" encoding="UTF-8"?>
<!DOCTYPE svg PUBLIC "-//W3C//DTD SVG 1.1//EN" "http://www.w3.org/Graphics/SVG/1.1/DTD/svg11.dtd">
<svg xmlns="http://www.w3.org/2000/svg" version="1.1" width="322px" height="170px" style="shape-rendering:geometricPrecision; text-rendering:geometricPrecision; image-rendering:optimizeQuality; fill-rule:evenodd; clip-rule:evenodd" xmlns:xlink="http://www.w3.org/1999/xlink">
<g><path style="opacity:1" fill="currentColor" d="M 71.5,-0.5 C 130.833,-0.5 190.167,-0.5 249.5,-0.5C 289.167,7.83333 313.167,31.8333 321.5,71.5C 321.5,80.1667 321.5,88.8333 321.5,97.5C 313.167,137.167 289.167,161.167 249.5,169.5C 190.167,169.5 130.833,169.5 71.5,169.5C 31.8333,161.167 7.83333,137.167 -0.5,97.5C -0.5,88.8333 -0.5,80.1667 -0.5,71.5C 7.83333,31.8333 31.8333,7.83333 71.5,-0.5 Z M 94.5,5.5 C 138.5,5.5 182.5,5.5 226.5,5.5C 226.5,58.1667 226.5,110.833 226.5,163.5C 182.5,163.5 138.5,163.5 94.5,163.5C 95.0744,110.912 95.0744,58.2458 94.5,5.5 Z M 241.5,8.5 C 249.891,8.76281 258.224,9.59615 266.5,11C 269.2,11.9492 270.033,13.7825 269,16.5C 267.874,17.9436 266.374,18.6102 264.5,18.5C 255.56,17.0622 246.56,16.2289 237.5,16C 235.789,14.8668 235.289,13.3668 236,11.5C 237.719,10.1312 239.552,9.13124 241.5,8.5 Z M 74.5,9.5 C 79.9022,10.0075 80.9022,11.8409 77.5,15C 66.3306,18.9179 55.6639,23.9179 45.5,30C 37.6408,37.195 29.8074,44.3616 22,51.5C 17.3807,59.4404 13.7141,67.7737 11,76.5C 9.95054,77.5171 8.78387,77.6838 7.5,77C 6.40857,74.9361 6.2419,72.7695 7,70.5C 10.1262,60.9086 14.7929,52.2419 21,44.5C 29.5,37.3333 38,30.1667 46.5,23C 55.8437,18.1589 65.1771,13.6589 74.5,9.5 Z M 239.5,25.5 C 251.838,25.3335 264.171,25.5001 276.5,26C 282.931,27.0335 289.098,28.8668 295,31.5C 296.073,35.1672 294.74,37.1672 291,37.5C 286.524,36.2559 282.024,35.0893 277.5,34C 265.5,33.6667 253.5,33.3333 241.5,33C 237.025,31.603 236.358,29.103 239.5,25.5 Z M 78.5,26.5 C 84.2093,25.6779 85.5427,27.5112 82.5,32C 77.979,32.7293 73.6457,34.0626 69.5,36C 61.0716,41.4319 52.4049,46.4319 43.5,51C 37.9234,55.6734 33.4234,61.1734 30,67.5C 27.7345,72.1341 25.5678,76.8008 23.5,81.5C 22.2798,82.7111 21.1131,82.7111 20,81.5C 22.5851,68.5079 28.7517,57.3413 38.5,48C 51.3092,39.651 64.6425,32.4844 78.5,26.5 Z M 239.5,44.5 C 252.504,44.3334 265.504,44.5001 278.5,45C 289.687,46.1738 300.354,49.1738 310.5,54C 312.267,57.4238 311.267,59.5904 307.5,60.5C 298.127,56.9068 288.461,54.4068 278.5,53C 264.833,52.6667 251.167,52.3333 237.5,52C 234.759,48.711 235.425,46.211 239.5,44.5 Z M 77.5,47.5 C 79.5273,47.3379 81.5273,47.5045 83.5,48C 84.8333,49.3333 84.8333,50.6667 83.5,52C 68.3889,55.7986 55.5556,63.2986 45,74.5C 42.5524,78.6149 39.7191,82.4482 36.5,86C 33.3333,86.8333 32.1667,85.6667 33,82.5C 39.8862,69.947 49.7196,60.447 62.5,54C 67.5896,51.7822 72.5896,49.6156 77.5,47.5 Z M 239.5,62.5 C 265.72,61.3109 291.053,65.4776 315.5,75C 318.498,78.8178 317.498,80.9845 312.5,81.5C 299.919,78.0214 287.252,74.8548 274.5,72C 262.195,70.8819 249.862,70.2152 237.5,70C 234.746,66.6579 235.413,64.1579 239.5,62.5 Z M 74.5,66.5 C 78.8202,66.9592 79.4868,68.7925 76.5,72C 70.7065,74.7304 65.0399,77.7304 59.5,81C 57.1377,83.692 54.8044,86.3587 52.5,89C 48.29,89.089 47.4567,87.2557 50,83.5C 51.1411,81.3911 52.6411,79.5578 54.5,78C 60.8407,73.5072 67.5073,69.6738 74.5,66.5 Z M 244.5,79.5 C 248.146,80.4615 249.313,82.7949 248,86.5C 246.226,90.9727 243.06,92.8061 238.5,92C 237.643,91.3109 236.977,90.4776 236.5,89.5C 238.871,85.8101 241.538,82.4767 244.5,79.5 Z M 272.5,79.5 C 274.75,79.9513 276.084,81.2847 276.5,83.5C 274.637,88.1974 272.137,92.5307 269,96.5C 259.833,105.344 249.833,113.011 239,119.5C 235.638,118.762 234.305,116.762 235,113.5C 249.621,104.373 262.121,93.0394 272.5,79.5 Z M 5.5,84.5 C 8.27065,84.4207 10.9373,84.9207 13.5,86C 30.4333,93.9781 47.7666,100.978 65.5,107C 73.4828,108.479 81.4828,109.813 89.5,111C 90.5171,112.049 90.6838,113.216 90,114.5C 78.5904,115.442 67.4237,113.942 56.5,110C 41.0859,103.862 25.7526,97.5286 10.5,91C 8.15582,90.1628 6.15582,88.8294 4.5,87C 5.25244,86.3292 5.58577,85.4959 5.5,84.5 Z M 293.5,85.5 C 296.864,84.8728 298.864,86.2061 299.5,89.5C 296.181,102.971 289.181,114.137 278.5,123C 271.452,129.049 264.119,134.716 256.5,140C 249.758,142.493 242.925,142.993 236,141.5C 234.172,139.597 234.339,137.764 236.5,136C 241.833,135 247.167,134 252.5,133C 264.569,124.932 275.403,115.432 285,104.5C 288.397,98.377 291.23,92.0436 293.5,85.5 Z M 307.5,89.5 C 310.833,88.8333 312.833,90.1667 313.5,93.5C 312.617,101.947 311.117,110.28 309,118.5C 297.552,136.953 282.052,150.786 262.5,160C 253.207,161.442 243.874,161.776 234.5,161C 231.833,159 231.833,157 234.5,155C 243.519,154.078 252.519,153.078 261.5,152C 279.23,142.937 293.063,129.77 303,112.5C 303.997,106.539 304.663,100.539 305,94.5C 305.366,92.5483 306.199,90.8816 307.5,89.5 Z M 71.5,90.5 C 76.5867,90.2845 77.5867,92.1178 74.5,96C 72.6494,96.8372 70.8161,97.6705 69,98.5C 66.9348,97.3722 66.2681,95.7055 67,93.5C 68.6516,92.6006 70.1516,91.6006 71.5,90.5 Z M 6.5,100.5 C 9.6074,100.351 12.6074,100.851 15.5,102C 24.6571,106.412 33.6571,111.078 42.5,116C 55.8256,120.532 69.4923,123.532 83.5,125C 86.2026,128.037 85.3692,129.87 81,130.5C 67.889,128.944 55.0557,126.111 42.5,122C 30.0692,115.454 17.7358,108.954 5.5,102.5C 5.86273,101.817 6.19607,101.15 6.5,100.5 Z M 14.5,117.5 C 26.9195,124.065 39.2528,130.898 51.5,138C 59.4036,140.975 67.4036,143.642 75.5,146C 77.0074,146.837 77.5074,148.004 77,149.5C 66.7057,149.3 56.8724,146.8 47.5,142C 36.3367,135.919 25.3367,129.586 14.5,123C 13.2475,121.172 13.2475,119.339 14.5,117.5 Z"/></g>
</svg>
